<svg height="507pt" viewBox="-11 0 507 507.66102" width="507pt" xmlns="http://www.w3.org/2000/svg"><path d="m113.511719 186.578125c-23.457031-.3125-45.792969 10.015625-60.746094 28.089844-33.5 40.785156-26.035156 78.101562-26.035156 78.101562-43.390625 50.730469-28.160157 93.398438 8.679687 93.398438 34.710938 0 34.710938-43.386719 34.710938-43.386719 26.03125-8.679688-8.765625-47.148438-8.765625-47.148438s-1.910157-81.894531 52.15625-74.34375" fill="#5e5f62"/><path d="m373.847656 221.289062c54.066406-7.550781 51.792969 74.34375 51.792969 74.34375s-34.800781 38.46875-8.765625 47.148438c0 0 0 43.386719 34.710938 43.386719 36.839843 0 52.066406-42.667969 8.679687-93.398438 0 0 7.460937-37.316406-26.035156-78.101562-14.8125-18.054688-37.03125-28.390625-60.382813-28.089844" fill="#5e5f62"/><path d="m148.222656 4.339844h190.914063c19.171875 0 34.710937 15.539062 34.710937 34.710937v347.117188c0 19.171875-15.539062 34.714843-34.710937 34.714843h-190.914063c-19.171875 0-34.710937-15.542968-34.710937-34.714843v-347.117188c0-19.171875 15.539062-34.710937 34.710937-34.710937zm0 0" fill="#67b9cc"/><path d="m373.847656 39.050781v45.125c-102.601562 61.378907-191.269531 143.484375-260.335937 241.074219v-286.199219c0-19.171875 15.539062-34.710937 34.710937-34.710937h190.914063c19.171875 0 34.710937 15.539062 34.710937 34.710937zm0 0" fill="#9fc9d3"/><g fill="#2c2f38"><path d="m165.578125 4.339844 13.484375 34.710937c3.074219 5.546875 9.003906 8.902344 15.34375 8.679688h98.546875c6.339844.222656 12.269531-3.132813 15.34375-8.679688l13.484375-34.710937"/><path d="m156.898438 39.050781c0 4.792969-3.882813 8.679688-8.675782 8.679688-4.792968 0-8.679687-3.886719-8.679687-8.679688s3.886719-8.679687 8.679687-8.679687c4.792969 0 8.675782 3.886718 8.675782 8.679687zm0 0"/><path d="m347.816406 39.050781c0 4.792969-3.886718 8.679688-8.679687 8.679688s-8.675781-3.886719-8.675781-8.679688 3.882812-8.679687 8.675781-8.679687 8.679687 3.886718 8.679687 8.679687zm0 0"/><path d="m182.933594 420.882812h34.710937v49.898438h-34.710937zm0 0"/><path d="m269.714844 420.882812h34.710937v49.898438h-34.710937zm0 0"/></g><path d="m156.898438 507.660156c0-23.960937 19.425781-43.390625 43.390624-43.390625 23.964844 0 43.390626 19.429688 43.390626 43.390625zm0 0" fill="#5e5f62"/><path d="m243.679688 507.660156c0-23.960937 19.425781-43.390625 43.390624-43.390625 23.960938 0 43.390626 19.429688 43.390626 43.390625zm0 0" fill="#5e5f62"/><path d="m339.136719 425.21875h-190.914063c-21.558594-.023438-39.027344-17.492188-39.050781-39.050781v-347.117188c.023437-21.558593 17.492187-39.0273435 39.050781-39.050781h190.914063c21.558593.0234375 39.027343 17.492188 39.050781 39.050781v347.117188c-.023438 21.558593-17.492188 39.027343-39.050781 39.050781zm-190.914063-416.539062c-16.773437 0-30.375 13.597656-30.375 30.371093v347.117188c0 16.777343 13.601563 30.375 30.375 30.375h190.914063c16.773437 0 30.375-13.597657 30.375-30.375v-347.117188c0-16.773437-13.601563-30.371093-30.375-30.371093zm0 0" fill="#2c2f38"/><path d="m226.324219 195.253906c-2.460938 0-4.804688-1.042968-6.449219-2.871094l-78.101562-86.78125c-3.089844-3.574218-2.753907-8.964843.757812-12.125 3.511719-3.164062 8.90625-2.933593 12.136719.515626l78.101562 86.777343c2.292969 2.546875 2.875 6.207031 1.480469 9.335938-1.394531 3.128906-4.5 5.148437-7.925781 5.148437zm0 0" fill="#285680"/><path d="m148.222656 195.253906c-3.425781 0-6.53125-2.019531-7.925781-5.148437-1.394531-3.128907-.816406-6.789063 1.476563-9.335938l78.101562-86.777343c2.054688-2.375 5.234375-3.457032 8.3125-2.824219 3.074219.632812 5.570312 2.878906 6.519531 5.875.953125 2.992187.210938 6.265625-1.9375 8.558593l-78.101562 86.78125c-1.644531 1.828126-3.988281 2.871094-6.445313 2.871094zm0 0" fill="#285680"/><path d="m339.136719 195.253906c-2.457031 0-4.800781-1.042968-6.449219-2.871094l-78.101562-86.78125c-3.089844-3.574218-2.753907-8.964843.757812-12.125 3.511719-3.164062 8.910156-2.933593 12.140625.515626l78.101563 86.777343c2.292968 2.546875 2.871093 6.207031 1.476562 9.335938-1.394531 3.128906-4.5 5.148437-7.925781 5.148437zm0 0" fill="#285680"/><path d="m261.035156 195.253906c-3.425781 0-6.53125-2.019531-7.925781-5.148437-1.394531-3.128907-.8125-6.789063 1.476563-9.335938l78.101562-86.777343c3.234375-3.449219 8.628906-3.679688 12.140625-.515626 3.511719 3.160157 3.847656 8.550782.757813 12.125l-78.101563 86.78125c-1.644531 1.828126-3.988281 2.871094-6.449219 2.871094zm0 0" fill="#285680"/><path d="m287.070312 273.355469c0 23.964843-19.425781 43.390625-43.390624 43.390625-23.964844 0-43.390626-19.425782-43.390626-43.390625 0-23.964844 19.425782-43.390625 43.390626-43.390625 23.964843 0 43.390624 19.425781 43.390624 43.390625zm0 0" fill="#802d40"/><path d="m200.289062 342.78125c-2.300781-.003906-4.507812-.917969-6.132812-2.542969-10.984375-10.902343-20.304688-23.359375-27.667969-36.96875-2.15625-4.289062-.429687-9.511719 3.859375-11.667969 4.285156-2.15625 9.507813-.429687 11.667969 3.855469 6.542969 11.933594 14.765625 22.871094 24.410156 32.476563 2.503907 2.476562 3.261719 6.226562 1.917969 9.480468-1.347656 3.257813-4.53125 5.378907-8.054688 5.367188zm0 0" fill="#285680"/><path d="m287.070312 342.78125c-3.511718-.003906-6.671874-2.117188-8.015624-5.359375s-.601563-6.972656 1.878906-9.457031c9.65625-9.585938 17.875-20.515625 24.402344-32.453125 2.144531-4.289063 7.355468-6.03125 11.644531-3.886719 4.292969 2.140625 6.03125 7.355469 3.890625 11.644531-7.363282 13.609375-16.683594 26.066407-27.667969 36.96875-1.625 1.625-3.832031 2.539063-6.132813 2.542969zm0 0" fill="#285680"/><path d="m282.816406 292.101562c-7.152344 14.9375-22.183594 24.5-38.746094 24.648438-16.5625.144531-31.761718-9.148438-39.179687-23.957031 0 0 43.386719-25.597657 77.925781-.691407zm0 0" fill="#ff5364"/></svg>